<?xml version="1.0" encoding="UTF-8" standalone="no"?>
<!-- Generator: Adobe Illustrator 28.0.0, SVG Export Plug-In . SVG Version: 6.00 Build 0)  -->

<svg
   version="1.1"
   x="0px"
   y="0px"
   viewBox="0 0 670.98419 210.49208"
   xml:space="preserve"
   id="svg62"
   width="670.98419"
   height="210.49208"
   xmlns="http://www.w3.org/2000/svg"
   xmlns:svg="http://www.w3.org/2000/svg"><defs
   id="defs62" />
<style
   type="text/css"
   id="style1">
	.st0{fill:#9F9F9F;}
	.st1{fill:#FFFFFF;}
	.st2{fill:#C4C4C4;}
	.st3{fill:#7B7B7B;}
	.st4{fill:#323232;}
	.st5{stroke:#000000;stroke-width:11.0805;stroke-linecap:round;stroke-linejoin:round;stroke-miterlimit:10;}
	.st6{fill:none;stroke:#000000;stroke-width:8.3104;stroke-linecap:round;stroke-linejoin:round;stroke-miterlimit:10;}
	.st7{fill:none;stroke:#000000;stroke-width:11.0351;stroke-linecap:round;stroke-linejoin:round;stroke-miterlimit:10;}
	.st8{fill:#FFFFFF;stroke:#000000;stroke-width:6.9253;stroke-linecap:round;stroke-linejoin:round;stroke-miterlimit:10;}
	.st9{fill:none;stroke:#000000;stroke-width:6.9253;stroke-linecap:round;stroke-linejoin:round;stroke-miterlimit:10;}
</style>

<g
   id="Layer_2"
   transform="translate(-352.24591,-127.99)">
	<g
   id="g34">
		<g
   id="g15">
			<g
   id="g14">
				<path
   class="st1"
   d="m 560.22,299.66 c -4.61,-17.37 -9.26,-34.75 -14.81,-51.85 -6,-18.47 -13.09,-36.72 -21.97,-54.01 -4.57,-8.9 -9.68,-17.5 -15.42,-25.69 -1.26,-2.33 -2.97,-4.2 -5.15,-5.61 -1.93,-1.77 -4.2,-2.96 -6.8,-3.58 -1.77,-0.24 -3.54,-0.48 -5.32,-0.71 -3.61,0.01 -6.97,0.92 -10.09,2.73 -2.19,0.94 -4.53,2.99 -6.13,4.35 -1.95,1.67 -3.41,3.88 -4.93,5.91 -1.65,2.21 -2.64,4.74 -3.7,7.26 -2.24,5.3 -4.29,10.69 -6.34,16.06 -3.55,9.29 -6.98,18.62 -10.29,28 -6.49,18.43 -12.47,37.04 -17.93,55.8 -3.2,10.96 -6.22,21.98 -9.11,33.03 -1.32,5.06 -0.64,10.88 2.02,15.41 1.26,2.33 2.97,4.2 5.15,5.61 1.93,1.77 4.2,2.96 6.8,3.58 5.12,1.17 10.87,0.91 15.41,-2.02 4.35,-2.81 7.85,-6.83 9.19,-11.95 4.56,-17.43 9.46,-34.77 14.82,-51.97 5.23,-16.81 10.9,-33.48 16.96,-50.01 3.5,-9.54 6.95,-19.16 10.9,-28.53 -0.67,1.59 -1.34,3.19 -2.02,4.78 0.76,-1.77 1.62,-3.48 2.8,-5.01 -1.04,1.35 -2.08,2.7 -3.13,4.05 0.51,-0.63 1.06,-1.2 1.69,-1.72 -1.35,1.04 -2.7,2.08 -4.05,3.13 0.65,-0.5 1.33,-0.9 2.08,-1.23 -9.12,-2.39 -18.24,-4.78 -27.36,-7.18 9.65,13.78 17.48,28.72 24.03,44.2 -0.67,-1.59 -1.34,-3.19 -2.02,-4.78 8.74,20.73 15.23,42.3 21.16,63.97 1.7,6.19 3.35,12.4 4.99,18.61 1.28,4.83 4.89,9.44 9.19,11.95 2.3,1.46 4.77,2.25 7.44,2.37 2.66,0.6 5.32,0.48 7.98,-0.36 4.84,-1.57 9.51,-4.57 11.95,-9.19 2.53,-4.78 3.43,-10.07 2.01,-15.4 z"
   id="path14" />
			</g>
		</g>
		<g
   id="g17">
			<g
   id="g16">
				<path
   class="st1"
   d="m 467.17,266.74 c 17.86,-3.57 35.37,-8.7 53.22,-12.33 4.94,-1.01 9.91,-1.9 14.9,-2.58 -1.77,0.24 -3.54,0.48 -5.32,0.71 2.27,-0.3 4.54,-0.56 6.82,-0.75 2.75,0.1 5.32,-0.47 7.71,-1.72 2.48,-0.81 4.62,-2.19 6.44,-4.14 1.95,-1.81 3.33,-3.96 4.14,-6.44 1.25,-2.38 1.83,-4.95 1.72,-7.71 -0.23,-5.17 -1.93,-10.54 -5.86,-14.14 -3.72,-3.42 -8.91,-6.29 -14.14,-5.86 -21.91,1.81 -43.18,7.71 -64.47,12.83 -5.25,1.26 -10.5,2.48 -15.79,3.54 -2.6,0.62 -4.87,1.81 -6.8,3.58 -2.18,1.41 -3.89,3.28 -5.15,5.61 -1.46,2.3 -2.25,4.77 -2.37,7.44 -0.6,2.66 -0.48,5.32 0.36,7.98 1.57,4.84 4.57,9.51 9.19,11.95 1.59,0.67 3.19,1.34 4.78,2.02 3.53,0.97 7.07,0.97 10.62,0.01 z"
   id="path15" />
			</g>
		</g>
		<g
   id="g19">
			<g
   id="g18">
				<path
   class="st1"
   d="m 618.27,127.99 c -24.59,3.26 -49.31,5.5 -74.03,7.55 -6.7,0.56 -13.39,1.09 -20.09,1.61 -2.75,-0.1 -5.32,0.47 -7.71,1.72 -2.48,0.81 -4.63,2.19 -6.44,4.14 -1.95,1.81 -3.33,3.96 -4.14,6.44 -1.25,2.38 -1.83,4.95 -1.72,7.71 0.23,5.17 1.93,10.54 5.86,14.14 3.74,3.43 8.89,6.27 14.14,5.86 24.73,-1.92 49.46,-3.99 74.11,-6.73 6.68,-0.74 13.35,-1.54 20.01,-2.42 2.75,0.1 5.32,-0.47 7.71,-1.72 2.48,-0.81 4.62,-2.19 6.44,-4.14 1.95,-1.81 3.33,-3.96 4.14,-6.44 1.25,-2.38 1.83,-4.95 1.72,-7.71 -0.23,-5.17 -1.93,-10.54 -5.86,-14.14 -1.35,-1.04 -2.7,-2.08 -4.05,-3.13 -3.12,-1.82 -6.48,-2.73 -10.09,-2.74 z"
   id="path17" />
			</g>
		</g>
		<g
   id="g21">
			<g
   id="g20">
				<path
   class="st1"
   d="m 551.22,157.94 c -0.03,19.29 0.06,38.58 0.26,57.86 0.21,19.37 0.53,38.74 0.97,58.11 0.25,10.89 0.54,21.78 0.86,32.66 0.16,5.22 2.12,10.41 5.86,14.14 1.81,1.95 3.96,3.33 6.44,4.14 2.38,1.25 4.95,1.83 7.71,1.72 5.17,-0.23 10.54,-1.93 14.14,-5.86 3.53,-3.85 6.02,-8.78 5.86,-14.14 -0.57,-19.28 -1.03,-38.56 -1.37,-57.85 -0.34,-19.37 -0.56,-38.74 -0.66,-58.11 -0.06,-10.89 -0.08,-21.78 -0.06,-32.67 0.01,-5.12 -2.24,-10.52 -5.86,-14.14 -1.81,-1.95 -3.96,-3.33 -6.44,-4.14 -2.38,-1.25 -4.95,-1.83 -7.71,-1.72 -5.17,0.23 -10.54,1.93 -14.14,5.86 -3.6,3.91 -5.85,8.71 -5.86,14.14 z"
   id="path19" />
			</g>
		</g>
		<g
   id="g23">
			<g
   id="g22">
				<path
   class="st1"
   d="m 667.54,327.41 c 4.24,-1.25 8.38,-2.99 12.33,-4.97 2.33,-1.17 4.56,-2.55 6.64,-4.12 3.45,-2.59 6.86,-5.17 9.83,-8.31 2.89,-3.06 5.46,-6.45 7.87,-9.89 4.36,-6.22 7.45,-13.35 10.04,-20.44 2.32,-6.34 3.82,-12.96 4.82,-19.63 2.29,-15.38 3.54,-31.17 1.78,-46.68 -0.94,-8.26 -2.17,-16.5 -4.86,-24.39 -2.44,-7.16 -5.52,-14.32 -9.69,-20.66 -4.16,-6.33 -9.08,-12.54 -15.08,-17.23 -2.43,-1.9 -4.85,-3.93 -7.54,-5.47 -2.81,-1.61 -5.87,-2.89 -8.93,-3.9 -2.9,-0.96 -6.11,-1.25 -9.09,-1.53 -3.09,-0.29 -6.35,0.36 -9.35,0.88 -4.39,0.76 -8.69,2.8 -12.66,4.63 -2.53,1.17 -4.95,2.57 -7.18,4.24 -3.66,2.74 -7.17,5.56 -10.28,8.93 -3.02,3.28 -5.75,6.86 -8.29,10.52 -4.58,6.59 -8.11,13.72 -10.78,21.29 -2.34,6.64 -4.16,13.51 -6,20.3 -1.89,6.98 -3.57,14.03 -4.66,21.18 -1.23,8.16 -2.25,16.36 -1.88,24.62 0.22,4.88 0.87,9.77 1.67,14.59 0.5,3.05 1.2,6.07 2.12,9.02 1.42,4.57 3.3,9.05 5.44,13.33 1.33,2.68 2.89,5.25 4.68,7.65 2.72,3.63 5.44,7.23 8.78,10.31 3.22,2.96 6.73,5.69 10.42,8.04 3.76,2.39 7.92,4.11 12.06,5.73 2.64,1.03 5.38,1.76 8.18,2.19 4.42,0.67 8.77,1.32 13.24,0.94 2.75,0.1 5.32,-0.47 7.71,-1.72 2.48,-0.81 4.62,-2.19 6.44,-4.14 1.95,-1.81 3.33,-3.96 4.14,-6.44 1.25,-2.38 1.83,-4.95 1.72,-7.71 -0.23,-5.17 -1.93,-10.54 -5.86,-14.14 -3.72,-3.41 -8.91,-6.3 -14.14,-5.86 -2.52,0.21 -5.04,0.15 -7.55,-0.18 1.77,0.24 3.54,0.48 5.32,0.71 -3.25,-0.46 -6.4,-1.34 -9.44,-2.59 1.59,0.67 3.19,1.34 4.78,2.02 -3.53,-1.49 -6.82,-3.45 -9.85,-5.78 1.35,1.04 2.7,2.08 4.05,3.13 -3.03,-2.38 -5.75,-5.1 -8.12,-8.13 1.04,1.35 2.08,2.7 3.13,4.05 -2.67,-3.47 -4.82,-7.28 -6.54,-11.3 0.67,1.59 1.34,3.19 2.02,4.78 -2.23,-5.32 -3.66,-10.91 -4.46,-16.62 0.24,1.77 0.48,3.54 0.71,5.32 -1.09,-8.18 -0.84,-16.42 0.25,-24.58 -0.24,1.77 -0.48,3.54 -0.71,5.32 1.13,-8.21 3.06,-16.27 5.25,-24.25 2.11,-7.68 4.05,-15.59 7.15,-22.93 -0.67,1.59 -1.34,3.19 -2.02,4.78 2.37,-5.5 5.69,-10.77 9.34,-15.5 -1.04,1.35 -2.08,2.7 -3.13,4.05 2.73,-3.49 5.84,-6.76 9.34,-9.48 -1.35,1.04 -2.7,2.08 -4.05,3.13 2.65,-2 5.59,-3.59 8.65,-4.89 -1.59,0.67 -3.19,1.34 -4.78,2.02 2.28,-0.94 4.63,-1.72 7.08,-2.07 -1.77,0.24 -3.54,0.48 -5.32,0.71 1.33,-0.17 2.65,-0.16 3.99,0 -1.77,-0.24 -3.54,-0.48 -5.32,-0.71 1.63,0.24 3.19,0.7 4.71,1.33 -1.59,-0.67 -3.19,-1.34 -4.78,-2.02 2.19,0.95 4.2,2.2 6.1,3.64 -1.35,-1.04 -2.7,-2.08 -4.05,-3.13 3.43,2.66 6.46,5.82 9.14,9.23 -1.04,-1.35 -2.08,-2.7 -3.13,-4.05 3.48,4.51 6.3,9.46 8.53,14.69 -0.67,-1.59 -1.34,-3.19 -2.02,-4.78 2.94,6.99 4.78,14.36 5.81,21.87 -0.24,-1.77 -0.48,-3.54 -0.71,-5.32 1.84,13.82 1.32,28.12 -0.52,41.92 0.24,-1.77 0.48,-3.54 0.71,-5.32 -1.16,8.48 -3.09,16.85 -6.38,24.76 0.67,-1.59 1.34,-3.19 2.02,-4.78 -2.16,5.1 -4.84,9.96 -8.22,14.36 1.04,-1.35 2.08,-2.7 3.13,-4.05 -2.48,3.18 -5.29,6.07 -8.46,8.55 1.35,-1.04 2.7,-2.08 4.05,-3.13 -3.03,2.34 -6.32,4.26 -9.84,5.76 1.59,-0.67 3.19,-1.34 4.78,-2.02 -1.61,0.67 -3.24,1.24 -4.91,1.74 -4.88,1.44 -9.36,4.77 -11.95,9.19 -1.46,2.3 -2.25,4.77 -2.37,7.44 -0.6,2.66 -0.48,5.32 0.36,7.98 1.57,4.84 4.57,9.51 9.19,11.95 4.7,2.5 10.17,3.57 15.4,2.02 z"
   id="path21" />
			</g>
		</g>
		<g
   id="g25">
			<g
   id="g24">
				<path
   class="st1"
   d="m 703.44,157.64 c 0.48,3.24 0.93,6.49 1.37,9.74 -0.24,-1.77 -0.48,-3.54 -0.71,-5.32 2.38,17.8 4.13,35.68 5.23,53.6 1.1,17.92 1.56,35.88 1.38,53.84 -0.1,10.17 -0.42,20.33 -0.94,30.48 1.95,-4.71 3.91,-9.43 5.86,-14.14 -0.04,0.05 -0.08,0.11 -0.13,0.16 2.94,-1.71 5.88,-3.43 8.83,-5.14 -0.04,0.02 -0.08,0.03 -0.13,0.05 3.54,0 7.09,0 10.63,0 -0.04,-0.01 -0.08,-0.03 -0.12,-0.04 2.94,1.71 5.88,3.43 8.83,5.14 -0.04,-0.04 -0.07,-0.08 -0.11,-0.11 1.04,1.35 2.08,2.7 3.13,4.05 -0.03,-0.06 -0.06,-0.12 -0.09,-0.17 0.67,1.59 1.34,3.19 2.02,4.78 -0.06,-0.15 -0.1,-0.31 -0.11,-0.47 0.24,1.77 0.48,3.54 0.71,5.32 -0.02,-0.18 -0.01,-0.35 0.03,-0.52 -0.24,1.77 -0.48,3.54 -0.71,5.32 0.03,-0.08 0.05,-0.16 0.08,-0.24 -0.67,1.59 -1.34,3.19 -2.02,4.78 0.04,-0.07 0.09,-0.14 0.13,-0.21 1.46,-2.3 2.25,-4.77 2.37,-7.44 0.6,-2.66 0.48,-5.32 -0.36,-7.98 -0.62,-2.6 -1.81,-4.87 -3.58,-6.8 -1.41,-2.18 -3.28,-3.89 -5.61,-5.15 -4.64,-2.45 -10.26,-3.68 -15.41,-2.02 -5.07,1.64 -9.07,4.65 -11.95,9.19 -0.6,0.95 -1.83,3.89 -2.15,4.99 -0.37,1.28 -0.73,4.21 -0.79,5.56 -0.01,0.18 -0.02,0.34 -0.03,0.52 -0.04,1.15 0.5,4.47 0.76,5.56 0.8,3.45 1.87,4.77 3.75,7.19 2.03,2.63 1.07,1.67 3.7,3.7 2.46,1.9 3.35,2.64 6.92,3.62 3.49,0.95 7.14,0.8 10.63,0 0.02,-0.01 0.04,-0.02 0.06,-0.03 1.62,-0.67 3.23,-1.35 4.84,-2.04 1.01,-0.65 3.36,-2.45 4.17,-3.29 0.52,-0.67 1.04,-1.35 1.56,-2.02 1.77,-1.93 2.96,-4.2 3.58,-6.8 0.65,-2.85 0.75,-5.84 0.88,-8.76 0.24,-5.24 0.43,-10.49 0.57,-15.73 0.26,-10.41 0.31,-20.82 0.14,-31.24 -0.34,-20.9 -1.55,-41.79 -3.63,-62.6 -1.34,-13.36 -3.05,-26.69 -5,-39.98 -0.62,-2.6 -1.81,-4.87 -3.58,-6.8 -1.41,-2.18 -3.28,-3.89 -5.61,-5.15 -2.3,-1.46 -4.77,-2.25 -7.44,-2.37 -2.66,-0.6 -5.32,-0.48 -7.98,0.36 -4.84,1.57 -9.51,4.57 -11.95,9.19 -0.67,1.59 -1.34,3.19 -2.02,4.78 -0.95,3.55 -0.95,7.09 0,10.64 z"
   id="path23" />
			</g>
		</g>
		<g
   id="g27">
			<g
   id="g26">
				<path
   class="st1"
   d="m 723.84,321.62 c 5.14,0.96 10.46,1.68 15.71,1.57 5.24,-0.11 10.54,-0.84 15.65,-1.97 5.14,-1.13 9.91,-3.13 14.73,-5.2 3.34,-1.43 6.54,-3.14 9.57,-5.15 4.32,-2.86 8.5,-6.09 12.24,-9.69 3.75,-3.62 7.01,-7.81 10,-12.06 2.21,-3.14 4.1,-6.5 5.66,-10.01 2.21,-4.98 4.3,-9.99 5.62,-15.29 1.32,-5.33 2.06,-10.86 2.49,-16.32 0.3,-3.85 0.27,-7.73 -0.08,-11.57 -0.87,-9.54 -2.77,-18.57 -6.44,-27.41 -3.58,-8.64 -7.54,-16.89 -12.92,-24.57 -5.27,-7.53 -11.15,-14.68 -17.7,-21.13 -6.94,-6.83 -14.55,-13.11 -23.04,-17.93 -3.68,-2.09 -7.48,-3.95 -11.32,-5.7 -4.23,-1.93 -8.52,-3.82 -12.92,-5.34 -2.71,-0.93 -5.47,-1.24 -8.35,-1.52 -2.75,-0.1 -5.32,0.47 -7.71,1.72 -2.48,0.81 -4.63,2.19 -6.44,4.14 -1.95,1.81 -3.33,3.96 -4.14,6.44 -1.25,2.38 -1.83,4.95 -1.72,7.71 0.23,5.17 1.93,10.54 5.86,14.14 1.35,1.04 2.7,2.08 4.05,3.13 3.12,1.81 6.48,2.72 10.09,2.73 0.05,0 0.1,0.01 0.15,0.01 -1.77,-0.24 -3.54,-0.48 -5.32,-0.71 2.73,0.38 5.45,1.71 7.97,2.77 -1.59,-0.67 -3.19,-1.34 -4.78,-2.02 8.3,3.51 16.53,7.65 23.69,13.17 -1.35,-1.04 -2.7,-2.08 -4.05,-3.13 7.92,6.19 15.07,13.69 21.21,21.63 -1.04,-1.35 -2.08,-2.7 -3.13,-4.05 5.49,7.14 10.1,14.89 13.64,23.18 -0.67,-1.59 -1.34,-3.19 -2.02,-4.78 2.72,6.45 4.79,13.1 5.72,20.05 -0.24,-1.77 -0.48,-3.54 -0.71,-5.32 0.79,6.09 0.78,12.24 -0.04,18.32 0.24,-1.77 0.48,-3.54 0.71,-5.32 -0.79,5.66 -2.27,11.18 -4.48,16.45 0.67,-1.59 1.34,-3.19 2.02,-4.78 -1.97,4.62 -4.47,8.98 -7.51,12.97 1.04,-1.35 2.08,-2.7 3.13,-4.05 -2.99,3.87 -6.46,7.31 -10.33,10.3 1.35,-1.04 2.7,-2.08 4.05,-3.13 -3.98,3.05 -8.32,5.58 -12.93,7.55 1.59,-0.67 3.19,-1.34 4.78,-2.02 -4.6,1.93 -9.41,3.28 -14.36,3.97 1.77,-0.24 3.54,-0.48 5.32,-0.71 -4.56,0.61 -9.17,0.64 -13.74,0.04 1.77,0.24 3.54,0.48 5.32,0.71 -0.87,-0.12 -1.73,-0.26 -2.59,-0.42 -2.66,-0.83 -5.32,-0.95 -7.98,-0.36 -2.66,0.12 -5.14,0.91 -7.44,2.37 -2.33,1.26 -4.2,2.97 -5.61,5.15 -1.77,1.93 -2.96,4.2 -3.58,6.8 -1.17,5.12 -0.91,10.87 2.02,15.41 2.71,4.2 6.92,8.28 11.98,9.23 z"
   id="path25" />
			</g>
		</g>
		<g
   id="g29">
			<g
   id="g28">
				<path
   class="st1"
   d="m 857.06,324.25 c 2.97,-0.44 5.89,-1.14 8.73,-2.12 4.31,-1.5 8.61,-3.3 12.6,-5.54 3.86,-2.17 7.38,-4.94 10.79,-7.73 2.28,-1.87 4.38,-3.95 6.28,-6.21 4.7,-5.59 8.83,-11.49 11.76,-18.19 3,-6.86 5.56,-13.71 7.12,-21.05 1.59,-7.5 2.58,-15.19 3.08,-22.84 0.41,-6.22 0.37,-12.47 -0.17,-18.68 -0.68,-7.79 -1.79,-15.64 -3.78,-23.21 -1.99,-7.56 -4.94,-14.94 -8.39,-21.93 -3.2,-6.48 -7.43,-12.5 -12.31,-17.83 -2.88,-3.15 -6.2,-5.69 -9.61,-8.25 -3.53,-2.65 -7.31,-4.24 -11.4,-5.93 -4.04,-1.67 -8.26,-2.2 -12.62,-2.62 -4.21,-0.4 -8.73,0.27 -12.78,1.25 -1.36,0.33 -2.67,0.79 -3.97,1.33 -2.77,1.15 -5.6,2.21 -8.18,3.77 -2.45,1.48 -4.67,3.33 -6.91,5.09 -1.22,0.96 -2.38,1.98 -3.47,3.09 -11.13,11.37 -16.36,26.89 -19.79,42.08 -3.4,15.04 -5.26,30.61 -5.29,46.03 -0.01,6.81 0.34,13.63 1.08,20.4 0.87,7.95 1.86,16.09 4.56,23.68 2.94,8.26 6.79,16.06 13.48,21.96 6.33,5.58 13.34,9.85 21.45,12.36 3.53,1.09 7.37,1.69 11.05,1.64 5.17,-0.07 10.47,-2.18 14.14,-5.86 1.95,-1.81 3.33,-3.96 4.14,-6.44 1.25,-2.38 1.83,-4.95 1.72,-7.71 -0.23,-5.17 -1.93,-10.54 -5.86,-14.14 -3.88,-3.56 -8.75,-5.93 -14.14,-5.86 -0.73,0.01 -1.45,-0.04 -2.17,-0.12 1.77,0.24 3.54,0.48 5.32,0.71 -2.21,-0.31 -4.33,-0.98 -6.38,-1.84 1.59,0.67 3.19,1.34 4.78,2.02 -2.85,-1.23 -5.53,-2.81 -8,-4.69 1.35,1.04 2.7,2.08 4.05,3.13 -2.04,-1.58 -3.91,-3.35 -5.5,-5.39 1.04,1.35 2.08,2.7 3.13,4.05 -1.47,-1.94 -2.54,-4.1 -3.5,-6.33 0.67,1.59 1.34,3.19 2.02,4.78 -2.44,-5.79 -3.76,-11.94 -4.6,-18.14 0.24,1.77 0.48,3.54 0.71,5.32 -2.08,-15.83 -1.91,-31.97 0.17,-47.79 -0.24,1.77 -0.48,3.54 -0.71,5.32 0.85,-6.31 2,-12.57 3.48,-18.76 1.39,-5.82 3,-11.62 5.32,-17.15 -0.67,1.59 -1.34,3.19 -2.02,4.78 1.6,-3.75 3.54,-7.32 6.01,-10.57 -1.04,1.35 -2.08,2.7 -3.13,4.05 1.82,-2.36 3.91,-4.47 6.26,-6.31 -1.35,1.04 -2.7,2.08 -4.05,3.13 1.94,-1.48 4.02,-2.74 6.26,-3.72 -1.59,0.67 -3.19,1.34 -4.78,2.02 2,-0.84 4.06,-1.44 6.21,-1.76 -1.77,0.24 -3.54,0.48 -5.32,0.71 1.98,-0.26 3.96,-0.27 5.94,-0.03 -1.77,-0.24 -3.54,-0.48 -5.32,-0.71 2.28,0.31 4.47,0.93 6.59,1.82 -1.59,-0.67 -3.19,-1.34 -4.78,-2.02 2.48,1.08 4.77,2.49 6.92,4.14 -1.35,-1.04 -2.7,-2.08 -4.05,-3.13 3.01,2.36 5.64,5.12 7.98,8.13 -1.04,-1.35 -2.08,-2.7 -3.13,-4.05 3.53,4.61 6.26,9.73 8.54,15.06 -0.67,-1.59 -1.34,-3.19 -2.02,-4.78 3.42,8.11 5.63,16.65 6.81,25.36 -0.24,-1.77 -0.48,-3.54 -0.71,-5.32 1.43,10.9 1.28,21.96 -0.16,32.86 0.24,-1.77 0.48,-3.54 0.71,-5.32 -1.12,8.23 -3.02,16.38 -6.25,24.06 0.67,-1.59 1.34,-3.19 2.02,-4.78 -2.03,4.75 -4.55,9.25 -7.71,13.34 1.04,-1.35 2.08,-2.7 3.13,-4.05 -2.48,3.17 -5.31,6.03 -8.48,8.51 1.35,-1.04 2.7,-2.08 4.05,-3.13 -3.25,2.5 -6.79,4.57 -10.55,6.19 1.59,-0.67 3.19,-1.34 4.78,-2.02 -3.78,1.59 -7.72,2.7 -11.78,3.3 -2.6,0.62 -4.87,1.81 -6.8,3.58 -2.18,1.41 -3.89,3.28 -5.15,5.61 -1.46,2.3 -2.25,4.77 -2.37,7.44 -0.6,2.66 -0.48,5.32 0.36,7.98 1.57,4.84 4.57,9.51 9.19,11.95 1.59,0.67 3.19,1.34 4.78,2.02 3.5,0.95 7.05,0.95 10.59,0 z"
   id="path27" />
			</g>
		</g>
		<g
   id="g31">
			<g
   id="g30">
				<path
   class="st1"
   d="m 930.54,310.28 c 4.28,-16.94 8.05,-34.01 11.13,-51.21 3.42,-19.09 6.11,-38.37 7.64,-57.7 0.77,-9.72 1.22,-19.46 1.25,-29.21 -12.42,3.36 -24.85,6.73 -37.27,10.09 6.13,9.56 11.46,19.6 15.88,30.07 -0.67,-1.59 -1.34,-3.19 -2.02,-4.78 5.62,13.37 9.44,27.35 14.27,41.01 5.33,15.07 11.45,29.83 17.68,44.55 3.27,7.74 6.6,15.45 9.9,23.18 1.04,1.35 2.08,2.7 3.13,4.05 1.35,1.04 2.7,2.08 4.05,3.13 1.59,0.67 3.19,1.34 4.78,2.02 2.66,0.83 5.32,0.95 7.98,0.36 1.81,-0.01 3.49,-0.46 5.05,-1.37 1.69,-0.48 3.16,-1.33 4.41,-2.57 1.5,-0.89 2.7,-2.08 3.59,-3.59 1.77,-1.93 2.96,-4.2 3.58,-6.8 2.7,-9.63 4.25,-19.55 5.07,-29.52 0.74,-9.02 0.85,-18.08 1.14,-27.12 0.63,-19.68 1.26,-39.35 1.88,-59.03 0.35,-11.04 0.7,-22.08 1.06,-33.13 0.1,-2.75 -0.47,-5.32 -1.72,-7.71 -0.81,-2.48 -2.19,-4.62 -4.14,-6.44 -1.81,-1.95 -3.96,-3.33 -6.44,-4.14 -2.38,-1.25 -4.95,-1.83 -7.71,-1.72 -5.17,0.23 -10.54,1.93 -14.14,5.86 -3.66,3.98 -5.68,8.67 -5.86,14.14 -0.54,16.94 -1.08,33.87 -1.62,50.81 -0.54,17.02 -1.09,34.04 -1.63,51.06 -0.26,8.23 -0.52,16.48 -1.61,24.65 0.24,-1.77 0.48,-3.54 0.71,-5.32 -0.79,5.74 -2.01,11.39 -3.58,16.96 12.18,-1.59 24.37,-3.19 36.56,-4.78 -3.42,-8.01 -6.86,-16 -10.25,-24.02 0.67,1.59 1.34,3.19 2.02,4.78 -6.08,-14.41 -11.92,-28.93 -16.98,-43.73 -2.56,-7.49 -4.77,-15.1 -7.38,-22.58 -2.97,-8.53 -6.4,-16.92 -10.21,-25.11 -3.76,-8.08 -8.11,-15.87 -12.91,-23.37 -1.04,-1.35 -2.08,-2.7 -3.13,-4.05 -1.81,-1.95 -3.96,-3.33 -6.44,-4.14 -1.56,-0.9 -3.24,-1.36 -5.05,-1.37 -2.66,-0.6 -5.32,-0.48 -7.98,0.36 -3.3,1.07 -6.27,2.8 -8.83,5.14 -1.95,1.81 -3.33,3.96 -4.14,6.44 -1.25,2.38 -1.83,4.95 -1.72,7.71 -0.07,18.68 -1.65,37.33 -4.13,55.84 0.24,-1.77 0.48,-3.54 0.71,-5.32 -2.74,20.32 -6.58,40.48 -11.19,60.45 -1.27,5.52 -2.61,11.02 -4,16.51 -1.29,5.1 -0.66,10.84 2.02,15.41 1.26,2.33 2.97,4.2 5.15,5.61 1.93,1.77 4.2,2.96 6.8,3.58 5.12,1.17 10.87,0.91 15.41,-2.02 4.37,-2.76 7.94,-6.81 9.23,-11.92 z"
   id="path29" />
			</g>
		</g>
		<g
   id="g33">
			<g
   id="g32">
				<path
   class="st1"
   d="m 417.5,281.66 c -1.43,0.14 -2.84,0.11 -4.27,-0.07 1.77,0.24 3.54,0.48 5.32,0.71 -1.86,-0.27 -3.64,-0.78 -5.38,-1.48 1.59,0.67 3.19,1.34 4.78,2.02 -2.28,-0.97 -4.39,-2.23 -6.37,-3.73 1.35,1.04 2.7,2.08 4.05,3.13 -5.93,-4.59 -10.8,-10.74 -15.38,-16.63 1.04,1.35 2.08,2.7 3.13,4.05 -3.62,-4.7 -6.86,-9.67 -9.2,-15.14 0.67,1.59 1.34,3.19 2.02,4.78 -2.03,-4.86 -3.35,-9.96 -4.06,-15.18 0.24,1.77 0.48,3.54 0.71,5.32 -0.89,-6.85 -0.73,-13.77 0.17,-20.61 -0.24,1.77 -0.48,3.54 -0.71,5.32 1.3,-9.6 3.98,-19.01 7.72,-27.93 -0.67,1.59 -1.34,3.19 -2.02,4.78 2.94,-6.93 6.61,-13.54 11.21,-19.51 -1.04,1.35 -2.08,2.7 -3.13,4.05 3.39,-4.35 7.23,-8.31 11.58,-11.71 -1.35,1.04 -2.7,2.08 -4.05,3.13 3.99,-3.08 8.33,-5.66 12.96,-7.65 -1.59,0.67 -3.19,1.34 -4.78,2.02 4.11,-1.73 8.4,-2.96 12.82,-3.58 -1.77,0.24 -3.54,0.48 -5.32,0.71 2.78,-0.37 5.79,-0.7 8.58,-0.33 -1.77,-0.24 -3.54,-0.48 -5.32,-0.71 4.29,0.61 8.85,1.7 12.86,3.34 -1.59,-0.67 -3.19,-1.34 -4.78,-2.02 0.38,0.16 0.76,0.33 1.1,0.57 -1.35,-1.04 -2.7,-2.08 -4.05,-3.13 0.05,0.03 0.09,0.07 0.13,0.11 3.79,3.59 8.87,5.86 14.14,5.86 2.75,0.1 5.32,-0.47 7.71,-1.72 2.48,-0.81 4.62,-2.19 6.44,-4.14 3.5,-3.81 6.1,-8.82 5.86,-14.14 -0.23,-5.22 -1.97,-10.45 -5.86,-14.14 -5.41,-5.13 -12.98,-7.1 -20.09,-8.64 -3.64,-0.78 -7.35,-1.38 -11.08,-1.34 -1.89,0.02 -3.77,0.18 -5.64,0.42 -3.44,0.45 -6.89,0.83 -10.27,1.67 -5.07,1.25 -9.98,3.34 -14.69,5.56 -3.32,1.57 -6.48,3.47 -9.45,5.63 -4.24,3.09 -8.4,6.33 -12.06,10.11 -3.69,3.81 -6.96,8.07 -10.03,12.39 -5.34,7.52 -9.13,15.94 -12.47,24.5 -2.79,7.16 -4.91,14.62 -6.17,22.21 -1.54,9.28 -2.56,18.7 -1.44,28.09 0.65,5.45 1.36,10.88 2.98,16.13 0.8,2.6 1.85,5.09 2.91,7.6 1.08,2.56 2.16,5.08 3.5,7.51 2.37,4.28 5.28,8.18 8.27,12.04 2.94,3.8 5.96,7.53 9.14,11.13 3.73,4.22 7.81,7.71 12.38,11.05 1.58,1.16 3.26,2.17 5.04,2.98 3.16,1.43 6.45,3.01 9.89,3.67 3.42,0.65 7.12,1.29 10.64,0.95 2.75,0.1 5.32,-0.47 7.71,-1.72 2.48,-0.81 4.62,-2.19 6.44,-4.14 1.95,-1.81 3.33,-3.96 4.14,-6.44 1.25,-2.38 1.83,-4.95 1.72,-7.71 -0.23,-5.17 -1.93,-10.54 -5.86,-14.14 -1.35,-1.04 -2.7,-2.08 -4.05,-3.13 -3.09,-1.81 -6.46,-2.72 -10.07,-2.73 z"
   id="path31" />
			</g>
		</g>
	</g>
	<g
   id="g36">
		<path
   class="st0"
   d="m 922.95,326.19 c 19.88,1.03 39.84,-1.6 59.61,-3.88 10.14,-1.17 27.54,-1.61 32.79,-10.37 6.07,-10.12 2.13,-26 -7.67,-32.57 -9.8,-6.57 -30.16,-7.69 -41.93,-8.44 -66.44,-4.23 -133.1,-2.85 -199.66,-1.47 -26.91,0.56 -53.81,1.12 -80.72,1.67 -22.03,0.46 -44.07,0.91 -66.1,1.37 -77.85,1.61 -155.75,1.23 -233.38,7.34 -9.98,0.79 -22.95,5.06 -26.53,14.42 -4.33,11.35 -1.54,23.77 9.68,28.41 22.99,9.5 58.69,9.43 83.56,9.75 30.72,0.4 61.45,-0.21 92.17,0.19 15.92,0.21 31.83,0.41 47.75,0.62 28.13,0.36 56.3,0.72 84.34,-1.5 29.73,-2.36 60.34,-0.91 90.12,-2.68 26.64,-1.58 53.34,-0.3 78.88,-0.86 28.44,-0.64 48.69,-3.3 77.09,-2"
   id="path34" />
		<g
   id="g35">
			<path
   class="st1"
   d="m 922.95,331.19 c 22.78,1.09 45.48,-2.29 68.07,-4.74 7.94,-0.86 16.93,-1.85 23.6,-6.67 6.99,-5.06 9.38,-14.18 8.4,-22.47 -1.04,-8.81 -5.34,-17.23 -12.81,-22.26 -7.24,-4.87 -16.68,-6.31 -25.14,-7.43 -21.64,-2.86 -43.81,-3.17 -65.6,-3.8 -50.47,-1.46 -100.96,-0.45 -151.42,0.6 -50.03,1.04 -100.05,2.09 -150.08,3.11 -50.44,1.03 -100.9,1.24 -151.33,2.95 -25.2,0.85 -50.4,2.08 -75.54,3.96 -9.31,0.7 -18.79,1.78 -26.83,6.97 -7.73,4.99 -11.5,12.97 -11.82,22.07 -0.31,8.82 3.66,17.38 11.27,22.06 7.65,4.7 17.77,6.53 26.49,8.01 19.57,3.32 39.48,3.59 59.28,3.82 24.63,0.29 49.25,0.06 73.88,0.09 24.79,0.03 49.57,0.51 74.36,0.82 25.09,0.31 50.22,0.5 75.26,-1.28 24.58,-1.75 49.14,-1.63 73.76,-2.18 12.34,-0.28 24.65,-1.18 36.99,-1.45 12.36,-0.27 24.73,-0.14 37.09,-0.08 23.1,0.12 46.05,-1.16 69.12,-2.08 11.01,-0.44 22,-0.5 33,-0.02 6.43,0.28 6.42,-9.72 0,-10 -21.4,-0.94 -42.69,0.64 -64.07,1.55 -23.32,0.99 -46.65,0.21 -69.98,0.54 -11.95,0.16 -23.86,1 -35.79,1.37 -11.67,0.37 -23.34,0.41 -35.01,0.54 -23.73,0.27 -47.32,2.42 -71.02,3.03 -48.13,1.23 -96.33,-0.88 -144.47,-0.73 -22.01,0.07 -44.01,0.13 -66.01,-0.31 -18.77,-0.37 -38.02,-1.02 -56.23,-5.99 -7.06,-1.93 -15.03,-4.07 -17.27,-11.94 -1.97,-6.91 0.07,-15.18 6.23,-19.2 7.47,-4.87 16.44,-5.22 25.04,-5.85 12.14,-0.88 24.3,-1.62 36.46,-2.23 48.21,-2.43 96.49,-3 144.75,-3.72 48.11,-0.72 96.21,-1.84 144.31,-2.84 48.25,-1 96.52,-2.32 144.78,-2.33 24.14,0 48.29,0.35 72.42,1.35 11.12,0.46 22.24,1.04 33.35,1.79 8.52,0.58 17.12,1.3 25.39,3.55 7.18,1.95 12.98,5.34 15.82,12.56 2.24,5.69 2.98,15.04 -2.58,19.19 -5.52,4.12 -13.91,4.53 -20.5,5.18 -10.45,1.04 -20.86,2.43 -31.31,3.4 -11.4,1.06 -22.84,1.64 -34.29,1.09 -6.45,-0.31 -6.44,9.69 -0.02,10 z"
   id="path35" />
		</g>
	</g>
	<g
   id="Layer_3">
		<polygon
   class="st1"
   points="471.77,263.02 465.06,275.61 516.68,275.61 505.32,250.43 "
   id="polygon36" />
		<polygon
   class="st1"
   points="540.94,247.46 551.77,275.61 557.45,268.08 553.84,235.44 "
   id="polygon37" />
		<polygon
   class="st1"
   points="769.06,204.39 742.23,178.2 745.84,269.94 772.68,268.9 782.48,239.63 "
   id="polygon38" />
		<path
   class="st1"
   d="m 952.99,268.08 c 0,0 -13.09,-29.34 -13.09,-28.45 0,0.89 -4.13,28.45 -4.13,28.45 z"
   id="path38" />
		<path
   class="st1"
   d="m 599,269.94 c 0,0 -3.48,-50.68 8.13,-68.95 11.61,-18.27 16.26,-40.39 16.26,-40.39 l -34.84,7.02 v 102.32 z"
   id="path39" />
		<path
   class="st1"
   d="m 878.87,263.02 c 0,0 17.42,-44.31 10.45,-57.08 -6.97,-12.77 -26.71,-52.26 -38.32,-38.32 -11.61,13.94 -32.52,51.13 -26.71,72.02 5.81,20.89 26.71,32.97 26.71,32.97 l 27.87,-3.97 z"
   id="path40" />
		<path
   class="st1"
   d="m 675.65,273.23 c 0,0 15.11,-17.36 12.2,-46.97 -2.91,-29.61 -22.65,-58.64 -22.65,-58.64 0,0 -47.61,54.84 -41.81,56.45 5.81,1.61 0,51.55 0,51.55 z"
   id="path41" />
		<polygon
   class="st1"
   points="427.9,173.68 401.32,193.29 388.16,229.89 393.32,261.94 406.74,276.9 436.68,274.32 470.23,172.13 460.16,173.68 "
   id="polygon41" />
		<polygon
   class="st1"
   points="529.06,216.77 544.81,218.84 554.61,224.52 554.61,170.06 516.68,171.1 511.52,164.13 504.03,170.58 "
   id="polygon42" />
	</g>
	<g
   id="g62">
		<g
   id="g43">
			<g
   id="g42">
				<path
   d="m 548.17,302.98 c -4.61,-17.37 -9.26,-34.75 -14.81,-51.85 -5.67,-17.46 -12.32,-34.68 -20.71,-51.02 -4.57,-8.9 -9.68,-17.5 -15.42,-25.69 -1.09,-1.55 -2.55,-3.01 -4.48,-3.45 -2.1,-0.48 -3.82,-0.09 -5.78,0.76 -4.83,2.08 -7.69,6.93 -9.64,11.55 -2.05,4.85 -3.89,9.79 -5.76,14.71 -3.69,9.7 -7.26,19.45 -10.7,29.24 -6.91,19.66 -13.3,39.5 -19.16,59.49 -3.31,11.27 -6.45,22.59 -9.42,33.95 -0.99,3.79 1.25,8.32 5.24,9.23 3.92,0.89 8.16,-1.18 9.23,-5.24 4.75,-18.13 9.92,-36.16 15.51,-54.05 5.59,-17.89 11.61,-35.65 18.04,-53.26 3.57,-9.77 7.08,-19.61 11.12,-29.19 -0.25,0.6 -0.5,1.19 -0.76,1.79 0.67,-1.56 1.44,-3.03 2.38,-4.45 0.74,-1.11 -1.18,1.3 -0.3,0.42 0.13,-0.13 0.8,-1 0.98,-0.97 -0.16,-0.03 -1.76,1.19 -0.41,0.36 0.4,-0.25 0.81,-0.45 1.24,-0.63 -3.42,-0.9 -6.84,-1.79 -10.26,-2.69 9.65,13.78 17.48,28.72 24.03,44.2 -0.25,-0.6 -0.5,-1.19 -0.76,-1.79 8.74,20.73 15.23,42.3 21.16,63.97 1.7,6.19 3.35,12.4 4.99,18.61 1.01,3.79 5.4,6.48 9.23,5.24 3.88,-1.27 6.3,-5.18 5.22,-9.24 z"
   id="path42" />
			</g>
		</g>
		<g
   id="g45">
			<g
   id="g44">
				<path
   d="m 463.84,254.69 c 17.86,-3.57 35.37,-8.7 53.22,-12.33 4.94,-1.01 9.91,-1.9 14.9,-2.58 -0.66,0.09 -1.33,0.18 -1.99,0.27 2.27,-0.3 4.54,-0.56 6.82,-0.75 2.02,-0.17 3.83,-0.72 5.3,-2.2 1.3,-1.3 2.28,-3.44 2.2,-5.3 -0.17,-3.79 -3.31,-7.85 -7.5,-7.5 -20.75,1.72 -40.98,7.53 -61.15,12.38 -5.25,1.26 -10.5,2.48 -15.79,3.54 -3.85,0.77 -6.42,5.56 -5.24,9.23 1.33,4.1 5.1,6.07 9.23,5.24 z"
   id="path43" />
			</g>
		</g>
		<g
   id="g47">
			<g
   id="g46">
				<path
   d="m 618.27,140.49 c -24.07,3.19 -48.25,5.51 -72.44,7.56 -6.56,0.56 -13.12,1.09 -19.68,1.6 -2.01,0.16 -3.84,0.73 -5.3,2.2 -1.3,1.3 -2.28,3.44 -2.2,5.3 0.17,3.8 3.31,7.83 7.5,7.5 24.2,-1.88 48.4,-4.01 72.52,-6.75 6.54,-0.74 13.07,-1.54 19.6,-2.4 2.07,-0.27 3.76,-0.66 5.3,-2.2 1.3,-1.3 2.28,-3.44 2.2,-5.3 -0.09,-1.94 -0.72,-3.95 -2.2,-5.3 -1.35,-1.26 -3.39,-2.46 -5.3,-2.21 z"
   id="path45" />
			</g>
		</g>
		<g
   id="g49">
			<g
   id="g48">
				<path
   d="m 563.72,157.94 c -0.03,19.29 0.06,38.58 0.26,57.86 0.21,19.37 0.53,38.74 0.97,58.11 0.25,10.89 0.54,21.78 0.86,32.66 0.12,3.92 3.37,7.69 7.5,7.5 3.96,-0.18 7.63,-3.3 7.5,-7.5 -0.57,-19.28 -1.03,-38.56 -1.37,-57.85 -0.34,-19.37 -0.56,-38.74 -0.66,-58.11 -0.06,-10.89 -0.08,-21.78 -0.06,-32.67 0.01,-3.92 -3.45,-7.68 -7.5,-7.5 -4.07,0.18 -7.49,3.29 -7.5,7.5 z"
   id="path47" />
			</g>
		</g>
		<g
   id="g51">
			<g
   id="g50">
				<path
   d="m 664.22,315.36 c 12.12,-3.58 21.99,-11.26 29.2,-21.54 7.62,-10.86 11.66,-24.08 13.6,-37.09 2.12,-14.25 2.96,-29.01 1.34,-43.35 -1.55,-13.64 -5.24,-27.16 -12.84,-38.75 -3.6,-5.49 -7.94,-10.65 -13.13,-14.7 -3.38,-2.64 -6.85,-4.79 -10.96,-6.16 -3.87,-1.28 -7.83,-1.33 -11.8,-0.65 -3.36,0.58 -6.6,1.95 -9.68,3.37 -2.53,1.17 -4.96,2.57 -7.18,4.24 -5.54,4.17 -10.13,9.28 -14.08,14.96 -3.95,5.68 -7.21,11.77 -9.52,18.3 -2.34,6.64 -4.16,13.51 -6,20.3 -3.74,13.78 -6.73,28.13 -6.09,42.48 0.59,13.39 4.05,27.4 12.2,38.28 7.73,10.32 19,18.56 31.98,20.52 3.31,0.5 6.57,0.78 9.91,0.5 2.02,-0.17 3.83,-0.72 5.3,-2.2 1.3,-1.3 2.28,-3.44 2.2,-5.3 -0.17,-3.78 -3.31,-7.86 -7.5,-7.5 -2.52,0.21 -5.04,0.15 -7.55,-0.18 0.66,0.09 1.33,0.18 1.99,0.27 -3.25,-0.46 -6.4,-1.34 -9.44,-2.59 0.6,0.25 1.19,0.5 1.79,0.76 -2.64,-1.12 -5.16,-2.48 -7.52,-4.09 -0.58,-0.4 -1.15,-0.81 -1.72,-1.23 -1.18,-0.86 1.43,1.17 0.31,0.23 -0.29,-0.25 -0.6,-0.49 -0.89,-0.73 -1.08,-0.91 -2.11,-1.87 -3.1,-2.88 -0.99,-1 -1.93,-2.05 -2.82,-3.15 -0.34,-0.42 -1.08,-1.57 0.22,0.31 -0.18,-0.26 -0.38,-0.51 -0.57,-0.77 -0.41,-0.57 -0.81,-1.14 -1.2,-1.73 -1.77,-2.69 -3.27,-5.55 -4.54,-8.51 0.25,0.6 0.5,1.19 0.76,1.79 -2.23,-5.32 -3.66,-10.91 -4.46,-16.62 0.09,0.66 0.18,1.33 0.27,1.99 -1.09,-8.18 -0.84,-16.42 0.25,-24.58 -0.09,0.66 -0.18,1.33 -0.27,1.99 1.13,-8.21 3.06,-16.27 5.25,-24.25 2.11,-7.68 4.05,-15.59 7.15,-22.93 -0.25,0.6 -0.5,1.19 -0.76,1.79 1.45,-3.35 3.3,-6.51 5.24,-9.6 0.87,-1.38 1.77,-2.73 2.72,-4.05 0.26,-0.36 0.53,-0.72 0.8,-1.08 0.97,-1.29 -0.73,0.91 -0.24,0.3 0.53,-0.65 1.05,-1.3 1.59,-1.93 2.18,-2.52 4.62,-4.71 7.13,-6.9 -2.02,1.76 0.02,0.04 0.63,-0.36 0.69,-0.45 1.4,-0.88 2.12,-1.28 1.5,-0.85 3.06,-1.6 4.65,-2.27 -0.6,0.25 -1.19,0.5 -1.79,0.76 2.28,-0.94 4.63,-1.72 7.08,-2.07 -0.66,0.09 -1.33,0.18 -1.99,0.27 1.33,-0.17 2.65,-0.16 3.99,0 -0.66,-0.09 -1.33,-0.18 -1.99,-0.27 1.63,0.24 3.19,0.7 4.71,1.33 -0.6,-0.25 -1.19,-0.5 -1.79,-0.76 1.41,0.61 2.76,1.34 4.04,2.18 0.35,0.23 0.7,0.47 1.04,0.71 0.46,0.33 1.37,1.26 -0.17,-0.17 0.51,0.47 1.09,0.88 1.61,1.33 2.29,1.99 4.39,4.19 6.31,6.54 0.21,0.26 0.41,0.54 0.63,0.79 -1.47,-1.59 -0.52,-0.69 -0.19,-0.24 0.44,0.59 0.87,1.2 1.3,1.81 0.84,1.22 1.64,2.48 2.4,3.76 1.55,2.63 2.91,5.36 4.11,8.17 -0.25,-0.6 -0.5,-1.19 -0.76,-1.79 2.94,6.99 4.78,14.36 5.81,21.87 -0.09,-0.66 -0.18,-1.33 -0.27,-1.99 1.84,13.82 1.32,28.12 -0.52,41.92 0.09,-0.66 0.18,-1.33 0.27,-1.99 -1.16,8.48 -3.09,16.85 -6.38,24.76 0.25,-0.6 0.5,-1.19 0.76,-1.79 -1.4,3.31 -3.01,6.53 -4.9,9.58 -0.83,1.34 -1.72,2.65 -2.66,3.92 -0.14,0.19 -0.29,0.39 -0.43,0.58 0.77,-0.99 0.98,-1.26 0.62,-0.81 -0.26,0.33 -0.52,0.65 -0.79,0.98 -0.49,0.59 -1,1.18 -1.52,1.75 -1.07,1.18 -2.2,2.3 -3.39,3.37 -0.52,0.47 -1.06,0.93 -1.61,1.38 -1.47,1.2 1.15,-0.84 0.13,-0.08 -0.28,0.21 -0.57,0.42 -0.85,0.63 -2.63,1.88 -5.46,3.44 -8.43,4.71 0.6,-0.25 1.19,-0.5 1.79,-0.76 -1.61,0.67 -3.24,1.24 -4.91,1.74 -3.76,1.11 -6.5,5.32 -5.24,9.23 1.25,3.79 5.21,6.41 9.24,5.22 z"
   id="path49" />
			</g>
		</g>
		<g
   id="g53">
			<g
   id="g52">
				<path
   d="m 715.5,154.31 c 0.48,3.24 0.93,6.49 1.37,9.74 -0.09,-0.66 -0.18,-1.33 -0.27,-1.99 2.38,17.8 4.13,35.68 5.23,53.6 1.1,17.92 1.56,35.88 1.38,53.84 -0.1,10.17 -0.42,20.33 -0.94,30.48 0.73,-1.77 1.46,-3.54 2.2,-5.3 -0.04,0.05 -0.08,0.11 -0.13,0.16 1.1,-0.64 2.21,-1.29 3.31,-1.93 -0.04,0.02 -0.08,0.03 -0.13,0.05 1.33,0 2.66,0 3.99,0 -0.04,-0.01 -0.08,-0.03 -0.12,-0.04 1.1,0.64 2.21,1.29 3.31,1.93 0.32,0.41 0.64,0.82 0.97,1.23 0.25,0.6 0.5,1.19 0.76,1.79 -0.06,-0.15 -0.1,-0.31 -0.11,-0.47 0.09,0.66 0.18,1.33 0.27,1.99 -0.02,-0.18 -0.01,-0.35 0.03,-0.52 -0.09,0.66 -0.18,1.33 -0.27,1.99 0.03,-0.08 0.05,-0.16 0.08,-0.24 -0.25,0.6 -0.5,1.19 -0.76,1.79 0.04,-0.07 0.09,-0.14 0.13,-0.21 2.11,-3.32 0.8,-8.42 -2.69,-10.26 -3.71,-1.96 -8.01,-0.85 -10.26,2.69 -2.88,4.54 -0.64,11.36 4.69,12.78 3.88,1.04 8.56,-1.39 9.48,-5.45 0.4,-1.75 0.35,-3.65 0.44,-5.43 0.24,-5.24 0.43,-10.49 0.57,-15.73 0.26,-10.41 0.31,-20.82 0.14,-31.24 -0.34,-20.9 -1.55,-41.79 -3.63,-62.6 -1.23,-12.25 -2.76,-24.47 -4.56,-36.65 -0.25,-1.73 -2.01,-3.64 -3.45,-4.48 -1.61,-0.94 -3.98,-1.34 -5.78,-0.76 -1.81,0.59 -3.57,1.71 -4.48,3.45 -1.02,1.92 -1.08,3.68 -0.77,5.79 z"
   id="path51" />
			</g>
		</g>
		<g
   id="g55">
			<g
   id="g54">
				<path
   d="m 727.16,309.56 c 15.9,2.97 32.55,-0.55 46.03,-9.49 13.91,-9.23 23.75,-23.37 27.77,-39.58 4.04,-16.27 2.36,-33.24 -4.03,-48.66 -3.15,-7.6 -6.93,-14.83 -11.66,-21.58 -4.67,-6.66 -9.95,-12.9 -15.75,-18.61 -6.21,-6.12 -12.9,-11.66 -20.51,-15.98 -6.73,-3.82 -13.93,-7.26 -21.25,-9.78 -1.67,-0.57 -3.26,-0.9 -5.03,-1.07 -1.8,-0.18 -4.07,0.96 -5.3,2.2 -1.3,1.3 -2.28,3.44 -2.2,5.3 0.09,1.94 0.72,3.95 2.2,5.3 1.54,1.42 3.22,1.99 5.3,2.2 0.05,0 0.1,0.01 0.15,0.01 -0.66,-0.09 -1.33,-0.18 -1.99,-0.27 2.73,0.38 5.45,1.71 7.97,2.77 -0.6,-0.25 -1.19,-0.5 -1.79,-0.76 4.91,2.08 9.74,4.41 14.38,7.04 2.6,1.48 5.15,3.07 7.57,4.83 0.23,0.17 0.47,0.34 0.7,0.51 0.16,0.12 1.32,1.01 0.27,0.2 -1.05,-0.81 0.1,0.09 0.26,0.22 0.22,0.18 0.44,0.36 0.66,0.55 1.16,0.97 2.3,1.98 3.42,3 3.98,3.61 7.78,7.42 11.33,11.46 0.87,1 1.73,2.01 2.57,3.03 0.42,0.51 0.83,1.02 1.24,1.54 0.16,0.21 0.33,0.41 0.49,0.62 0.89,1.13 -1.01,-1.34 -0.21,-0.27 1.58,2.11 3.11,4.24 4.55,6.45 3.34,5.11 6.21,10.5 8.6,16.1 -0.25,-0.6 -0.5,-1.19 -0.76,-1.79 2.72,6.45 4.79,13.1 5.72,20.05 -0.09,-0.66 -0.18,-1.33 -0.27,-1.99 0.79,6.09 0.78,12.24 -0.04,18.32 0.09,-0.66 0.18,-1.33 0.27,-1.99 -0.79,5.66 -2.27,11.18 -4.48,16.45 0.25,-0.6 0.5,-1.19 0.76,-1.79 -1.5,3.53 -3.31,6.93 -5.46,10.12 -0.52,0.77 -1.06,1.51 -1.6,2.26 -0.76,1.04 1.25,-1.56 0.03,-0.04 -0.23,0.29 -0.47,0.58 -0.71,0.87 -1.16,1.39 -2.39,2.72 -3.69,3.99 -1.29,1.27 -2.65,2.48 -4.05,3.62 -0.29,0.24 -0.59,0.47 -0.88,0.7 1.95,-1.57 0.47,-0.37 0.02,-0.04 -0.71,0.52 -1.43,1.02 -2.16,1.5 -3.02,2.01 -6.23,3.72 -9.57,5.15 0.6,-0.25 1.19,-0.5 1.79,-0.76 -4.6,1.93 -9.41,3.28 -14.36,3.97 0.66,-0.09 1.33,-0.18 1.99,-0.27 -4.56,0.61 -9.17,0.64 -13.74,0.04 0.66,0.09 1.33,0.18 1.99,0.27 -0.87,-0.12 -1.73,-0.26 -2.59,-0.42 -2.01,-0.38 -3.96,-0.31 -5.78,0.76 -1.56,0.91 -3.04,2.69 -3.45,4.48 -0.8,3.72 1.16,8.49 5.28,9.26 z"
   id="path53" />
			</g>
		</g>
		<g
   id="g57">
			<g
   id="g56">
				<path
   d="m 853.74,312.19 c 12.59,-1.86 24.69,-8.66 32.88,-18.4 8.12,-9.65 13.06,-21.45 15.66,-33.73 5.43,-25.57 3.67,-53.4 -8,-77.03 -5.55,-11.23 -14.08,-21.39 -25.85,-26.27 -5.91,-2.45 -12.55,-2.87 -18.76,-1.36 -6.44,1.56 -12.41,5.36 -17.01,10.07 -9.58,9.79 -13.64,23.55 -16.58,36.57 -3.16,13.98 -4.82,28.38 -4.84,42.71 -0.01,6.81 0.34,13.63 1.08,20.4 0.76,6.88 1.79,13.81 4.12,20.35 2.23,6.26 5.22,12 10.26,16.44 4.62,4.08 10.02,7.31 15.93,9.14 2.47,0.76 5.14,1.23 7.73,1.19 3.92,-0.05 7.68,-3.41 7.5,-7.5 -0.18,-4.02 -3.3,-7.56 -7.5,-7.5 -0.73,0.01 -1.45,-0.04 -2.17,-0.12 0.66,0.09 1.33,0.18 1.99,0.27 -2.21,-0.31 -4.33,-0.98 -6.38,-1.84 0.6,0.25 1.19,0.5 1.79,0.76 -1.74,-0.75 -3.42,-1.62 -5.02,-2.62 -0.82,-0.51 -1.61,-1.07 -2.4,-1.63 -0.81,-0.58 0.56,0.41 0.65,0.51 -0.15,-0.17 -0.39,-0.31 -0.56,-0.45 -0.42,-0.34 -0.82,-0.69 -1.22,-1.05 -0.7,-0.63 -1.37,-1.29 -2,-1.98 -0.31,-0.34 -0.61,-0.68 -0.9,-1.03 -0.96,-1.16 0.98,1.41 0.15,0.19 -1.21,-1.78 -2.16,-3.69 -3.01,-5.66 0.25,0.6 0.5,1.19 0.76,1.79 -2.44,-5.79 -3.76,-11.94 -4.6,-18.14 0.09,0.66 0.18,1.33 0.27,1.99 -2.08,-15.83 -1.91,-31.97 0.17,-47.79 -0.09,0.66 -0.18,1.33 -0.27,1.99 0.85,-6.31 2,-12.57 3.48,-18.76 1.39,-5.82 3,-11.62 5.32,-17.15 -0.25,0.6 -0.5,1.19 -0.76,1.79 0.97,-2.28 2.06,-4.51 3.34,-6.64 0.64,-1.06 1.32,-2.1 2.04,-3.1 0.16,-0.22 0.82,-1.08 0.04,-0.08 -0.76,0.98 -0.16,0.21 0.01,0 0.37,-0.45 0.74,-0.89 1.13,-1.33 0.69,-0.77 1.41,-1.51 2.17,-2.22 0.43,-0.4 0.86,-0.78 1.31,-1.16 0.2,-0.17 0.4,-0.32 0.6,-0.49 0.69,-0.59 -1.34,0.98 -0.6,0.46 1.85,-1.29 3.72,-2.46 5.8,-3.37 -0.6,0.25 -1.19,0.5 -1.79,0.76 2,-0.84 4.06,-1.44 6.21,-1.76 -0.66,0.09 -1.33,0.18 -1.99,0.27 1.98,-0.26 3.96,-0.27 5.94,-0.03 -0.66,-0.09 -1.33,-0.18 -1.99,-0.27 2.28,0.31 4.47,0.93 6.59,1.82 -0.6,-0.25 -1.19,-0.5 -1.79,-0.76 1.34,0.58 2.63,1.26 3.88,2.02 0.58,0.36 1.14,0.73 1.7,1.12 0.3,0.21 0.6,0.44 0.9,0.66 0.72,0.53 -1.43,-1.16 -0.49,-0.37 2.29,1.92 4.41,4 6.32,6.32 0.2,0.25 0.4,0.5 0.61,0.75 0.89,1.1 -1.02,-1.36 -0.23,-0.3 0.46,0.62 0.91,1.24 1.34,1.87 0.83,1.2 1.61,2.44 2.34,3.7 1.66,2.85 3.09,5.84 4.39,8.87 -0.25,-0.6 -0.5,-1.19 -0.76,-1.79 3.42,8.11 5.63,16.65 6.81,25.36 -0.09,-0.66 -0.18,-1.33 -0.27,-1.99 1.43,10.9 1.28,21.96 -0.16,32.86 0.09,-0.66 0.18,-1.33 0.27,-1.99 -1.12,8.23 -3.02,16.38 -6.25,24.06 0.25,-0.6 0.5,-1.19 0.76,-1.79 -1.25,2.92 -2.67,5.76 -4.34,8.47 -0.83,1.35 -1.71,2.66 -2.65,3.93 -0.16,0.21 -0.32,0.42 -0.47,0.63 0.23,-0.3 0.46,-0.6 0.69,-0.89 -0.21,0.33 -0.5,0.62 -0.75,0.92 -0.55,0.66 -1.11,1.31 -1.69,1.94 -1.09,1.18 -2.24,2.31 -3.44,3.38 -0.61,0.54 -1.25,1.06 -1.88,1.58 -0.59,0.48 1.54,-1.16 0.22,-0.18 -0.33,0.24 -0.66,0.48 -0.99,0.72 -2.74,1.92 -5.67,3.53 -8.74,4.86 0.6,-0.25 1.19,-0.5 1.79,-0.76 -3.78,1.59 -7.72,2.7 -11.78,3.3 -1.73,0.26 -3.64,2.01 -4.48,3.45 -0.94,1.61 -1.34,3.98 -0.76,5.78 0.59,1.81 1.71,3.57 3.45,4.48 1.85,1.03 3.62,1.09 5.73,0.78 z"
   id="path55" />
			</g>
		</g>
		<g
   id="g59">
			<g
   id="g58">
				<path
   d="m 918.49,306.95 c 4.28,-16.94 8.05,-34.01 11.13,-51.21 3.23,-18 5.75,-36.15 7.2,-54.38 0.77,-9.72 1.22,-19.46 1.25,-29.21 -4.66,1.26 -9.32,2.52 -13.98,3.79 6.13,9.56 11.46,19.6 15.88,30.07 -0.25,-0.6 -0.5,-1.19 -0.76,-1.79 5.65,13.43 9.52,27.48 14.27,41.23 4.84,14.02 10.21,27.86 15.84,41.58 3.42,8.34 6.94,16.65 10.48,24.94 0.44,1.04 1.74,2.13 2.69,2.69 1.46,0.85 3.13,1.11 4.78,0.89 2.93,-0.39 5.43,-2.48 6.24,-5.37 5.05,-18.03 5.17,-36.75 5.77,-55.32 0.63,-19.68 1.26,-39.35 1.88,-59.03 0.35,-11.04 0.7,-22.08 1.06,-33.13 0.13,-3.93 -3.54,-7.68 -7.5,-7.5 -4.17,0.19 -7.37,3.29 -7.5,7.5 -0.55,17.1 -1.09,34.21 -1.64,51.31 -0.55,17.1 -1.09,34.21 -1.64,51.31 -0.28,8.68 -0.57,17.38 -1.7,26 0.09,-0.66 0.18,-1.33 0.27,-1.99 -0.77,5.7 -1.91,11.33 -3.46,16.86 4.57,-0.6 9.14,-1.19 13.71,-1.79 -1.32,-3.09 -2.63,-6.17 -3.93,-9.27 0.25,0.6 0.5,1.19 0.76,1.79 -7.11,-16.85 -13.98,-33.8 -20.08,-51.05 -3.05,-8.62 -5.77,-17.34 -8.58,-26.04 -2.77,-8.55 -5.95,-16.95 -9.61,-25.15 -4.07,-9.13 -8.87,-17.91 -14.26,-26.32 -1.73,-2.7 -5.24,-4.49 -8.47,-3.45 -3.16,1.02 -5.49,3.83 -5.51,7.23 -0.07,18.68 -1.65,37.33 -4.13,55.84 0.09,-0.66 0.18,-1.33 0.27,-1.99 -2.74,20.32 -6.58,40.48 -11.19,60.45 -1.27,5.52 -2.61,11.02 -4,16.51 -0.96,3.8 1.23,8.31 5.24,9.23 3.89,0.9 8.19,-1.16 9.22,-5.23 z"
   id="path57" />
			</g>
		</g>
		<g
   id="g61">
			<g
   id="g60">
				<path
   d="m 417.5,294.16 c -1.43,0.14 -2.84,0.11 -4.27,-0.07 0.66,0.09 1.33,0.18 1.99,0.27 -1.86,-0.27 -3.64,-0.78 -5.38,-1.48 0.6,0.25 1.19,0.5 1.79,0.76 -1.8,-0.76 -3.51,-1.7 -5.12,-2.81 -0.51,-0.35 -1.57,-1.49 -0.08,-0.01 -0.31,-0.31 -0.7,-0.56 -1.03,-0.84 -0.79,-0.66 -1.55,-1.36 -2.3,-2.07 -2.78,-2.67 -5.28,-5.63 -7.75,-8.57 -1.25,-1.49 -2.45,-3.01 -3.67,-4.52 1.35,1.66 0.39,0.5 0.08,0.1 -0.36,-0.48 -0.71,-0.96 -1.06,-1.44 -0.53,-0.72 -1.04,-1.45 -1.54,-2.19 -2.24,-3.3 -4.21,-6.77 -5.78,-10.44 0.25,0.6 0.5,1.19 0.76,1.79 -2.03,-4.86 -3.35,-9.96 -4.06,-15.18 0.09,0.66 0.18,1.33 0.27,1.99 -0.89,-6.85 -0.73,-13.77 0.17,-20.61 -0.09,0.66 -0.18,1.33 -0.27,1.99 1.3,-9.6 3.98,-19.01 7.72,-27.93 -0.25,0.6 -0.5,1.19 -0.76,1.79 2.72,-6.41 6.06,-12.58 10.2,-18.19 0.24,-0.33 0.47,-0.7 0.75,-1 0.06,-0.07 -1.04,1.32 -0.53,0.7 0.13,-0.16 0.26,-0.33 0.39,-0.49 0.56,-0.7 1.14,-1.4 1.73,-2.08 1.18,-1.37 2.42,-2.69 3.71,-3.95 1.21,-1.19 2.47,-2.33 3.78,-3.42 0.31,-0.26 0.63,-0.52 0.95,-0.77 1.01,-0.83 -1.28,0.95 -0.23,0.17 0.71,-0.53 1.42,-1.05 2.15,-1.55 3.19,-2.2 6.6,-4.07 10.16,-5.6 -0.6,0.25 -1.19,0.5 -1.79,0.76 4.11,-1.73 8.4,-2.96 12.82,-3.58 -0.66,0.09 -1.33,0.18 -1.99,0.27 2.78,-0.37 5.79,-0.7 8.58,-0.33 -0.66,-0.09 -1.33,-0.18 -1.99,-0.27 4.29,0.61 8.85,1.7 12.86,3.34 -0.6,-0.25 -1.19,-0.5 -1.79,-0.76 0.24,0.1 0.47,0.23 0.71,0.33 0.08,0.03 0.14,0.1 0.22,0.12 0.5,0.18 -1.52,-1.23 -1.22,-0.94 2.85,2.7 7.82,3.04 10.61,0 2.69,-2.93 3.04,-7.72 0,-10.61 -2.06,-1.95 -4.84,-2.83 -7.5,-3.62 -2.33,-0.7 -4.7,-1.29 -7.08,-1.8 -6.75,-1.46 -13.65,-0.89 -20.34,0.75 -16.03,3.95 -29.33,14.67 -38.75,27.95 -4.7,6.63 -8.26,13.96 -11.21,21.52 -2.79,7.16 -4.91,14.62 -6.17,22.21 -2.8,16.89 -1.72,34.46 6.7,49.7 4.15,7.51 9.79,14.23 15.45,20.64 5.77,6.53 12.97,12.81 21.8,14.49 2.41,0.46 4.87,0.74 7.32,0.51 2.03,-0.2 3.81,-0.71 5.3,-2.2 1.3,-1.3 2.28,-3.44 2.2,-5.3 -0.17,-3.77 -3.32,-7.93 -7.51,-7.53 z"
   id="path59" />
			</g>
		</g>
	</g>
</g>
</svg>
